<svg width="23" height="23" viewBox="0 0 23 23" fill="none" xmlns="http://www.w3.org/2000/svg">
<g clip-path="url(#clip0_3419_83176)">
<path d="M13.3906 18.375H14.4219C14.5586 18.375 14.6898 18.3207 14.7865 18.224C14.8832 18.1273 14.9375 17.9961 14.9375 17.8594V8.57812C14.9375 8.44137 14.8832 8.31022 14.7865 8.21352C14.6898 8.11683 14.5586 8.0625 14.4219 8.0625H13.3906C13.2539 8.0625 13.1227 8.11683 13.026 8.21352C12.9293 8.31022 12.875 8.44137 12.875 8.57812V17.8594C12.875 17.9961 12.9293 18.1273 13.026 18.224C13.1227 18.3207 13.2539 18.375 13.3906 18.375ZM20.4375 3.9375H16.8964L15.4355 1.50117C15.2522 1.19567 14.9928 0.942875 14.6827 0.767419C14.3726 0.591963 14.0223 0.499831 13.6661 0.5H9.33395C8.9778 0.499979 8.62771 0.592182 8.31778 0.767631C8.00784 0.94308 7.74862 1.1958 7.56535 1.50117L6.10355 3.9375H2.5625C2.38016 3.9375 2.2053 4.00993 2.07636 4.13886C1.94743 4.2678 1.875 4.44266 1.875 4.625L1.875 5.3125C1.875 5.49484 1.94743 5.6697 2.07636 5.79864C2.2053 5.92757 2.38016 6 2.5625 6H3.25V20.4375C3.25 20.9845 3.4673 21.5091 3.85409 21.8959C4.24089 22.2827 4.76549 22.5 5.3125 22.5H17.6875C18.2345 22.5 18.7591 22.2827 19.1459 21.8959C19.5327 21.5091 19.75 20.9845 19.75 20.4375V6H20.4375C20.6198 6 20.7947 5.92757 20.9236 5.79864C21.0526 5.6697 21.125 5.49484 21.125 5.3125V4.625C21.125 4.44266 21.0526 4.2678 20.9236 4.13886C20.7947 4.00993 20.6198 3.9375 20.4375 3.9375ZM9.25875 2.68754C9.28173 2.64929 9.31424 2.61767 9.3531 2.59575C9.39196 2.57383 9.43585 2.56237 9.48047 2.5625H13.5195C13.5641 2.56245 13.6079 2.57394 13.6467 2.59585C13.6854 2.61777 13.7179 2.64936 13.7408 2.68754L14.4911 3.9375H8.50895L9.25875 2.68754ZM17.6875 20.4375H5.3125V6H17.6875V20.4375ZM8.57812 18.375H9.60938C9.74613 18.375 9.87728 18.3207 9.97398 18.224C10.0707 18.1273 10.125 17.9961 10.125 17.8594V8.57812C10.125 8.44137 10.0707 8.31022 9.97398 8.21352C9.87728 8.11683 9.74613 8.0625 9.60938 8.0625H8.57812C8.44137 8.0625 8.31022 8.11683 8.21352 8.21352C8.11683 8.31022 8.0625 8.44137 8.0625 8.57812V17.8594C8.0625 17.9961 8.11683 18.1273 8.21352 18.224C8.31022 18.3207 8.44137 18.375 8.57812 18.375Z" fill="#424A5A"/>
</g>
<defs>
<clipPath id="clip0_3419_83176">
<rect width="22" height="22" fill="white" transform="translate(0.5 0.5)"/>
</clipPath>
</defs>
</svg>
