<svg width="180" height="20" viewBox="0 0 180 20" fill="none" xmlns="http://www.w3.org/2000/svg">
<g clip-path="url(#clip0_3409_57942)">
<g clip-path="url(#clip1_3409_57942)">
<path d="M49.1151 6.12174C49.0512 5.43537 48.773 4.90376 48.287 4.52357C47.7979 4.14337 47.1361 3.95495 46.3016 3.95495C45.7325 3.95495 45.2529 4.03907 44.8629 4.2073C44.4728 4.37552 44.1723 4.60432 43.9677 4.9004C43.7599 5.19648 43.6576 5.52958 43.6576 5.90305C43.648 6.21595 43.7087 6.48848 43.8462 6.72064C43.9837 6.9528 44.1723 7.15467 44.4121 7.31954C44.6519 7.48776 44.9332 7.63244 45.2498 7.75357C45.5663 7.87469 45.9052 7.97899 46.2633 8.06311L47.7435 8.43658C48.4629 8.60817 49.1215 8.8336 49.7226 9.11622C50.3236 9.39885 50.8416 9.74876 51.2828 10.1626C51.7208 10.5765 52.0629 11.0643 52.3091 11.6262C52.5521 12.1881 52.6767 12.8307 52.6831 13.5575C52.6767 14.624 52.421 15.5459 51.9158 16.3265C51.4107 17.1071 50.6785 17.7094 49.729 18.14C48.7762 18.5673 47.6316 18.7827 46.292 18.7827C44.9524 18.7827 43.8046 18.5673 42.8231 18.1367C41.8384 17.706 41.0711 17.0667 40.5244 16.2189C39.9745 15.371 39.6867 14.3212 39.6611 13.0662H43.0309C43.0693 13.6517 43.2292 14.1362 43.5105 14.5265C43.7919 14.9168 44.1691 15.2061 44.6455 15.4046C45.1187 15.5998 45.659 15.6973 46.2569 15.6973C46.8547 15.6973 47.3599 15.6065 47.7979 15.4248C48.2359 15.2431 48.5748 14.9908 48.8146 14.6678C49.0544 14.3448 49.1759 13.9713 49.1759 13.5541C49.1759 13.1638 49.0672 12.8341 48.8497 12.5683C48.6323 12.3025 48.3158 12.0737 47.9002 11.8886C47.4846 11.7002 46.9762 11.532 46.3752 11.3772L44.5816 10.8995C43.194 10.5428 42.0974 9.98429 41.2917 9.22389C40.486 8.46349 40.0864 7.44066 40.0927 6.15202C40.0864 5.09554 40.3549 4.17365 40.892 3.38634C41.4324 2.59902 42.1709 1.98331 43.1173 1.53918C44.0604 1.09506 45.1347 0.876358 46.3336 0.876358C47.5325 0.876358 48.6259 1.09842 49.5371 1.53918C50.4515 1.98331 51.1645 2.59566 51.6728 3.38634C52.1812 4.17365 52.4433 5.08882 52.4625 6.12511H49.1247L49.1151 6.12174ZM65.5772 1.10851H69.0589V12.427C69.0589 13.6988 68.7744 14.8091 68.2021 15.7613C67.6298 16.7135 66.8337 17.457 65.8106 17.9853C64.7875 18.5169 63.595 18.7793 62.233 18.7793C60.871 18.7793 59.6689 18.5135 58.6458 17.9853C57.6227 17.4537 56.8266 16.7135 56.2576 15.7613C55.6885 14.8091 55.4039 13.6954 55.4039 12.427V1.10851H58.8856V12.1107C58.8856 12.7735 59.0231 13.3657 59.3012 13.8805C59.5762 14.3953 59.9662 14.8024 60.4714 15.0985C60.9765 15.3945 61.5616 15.5426 62.233 15.5426C62.9044 15.5426 63.4959 15.3945 63.9979 15.0985C64.4998 14.8024 64.8867 14.3986 65.1648 13.8805C65.4398 13.3657 65.5804 12.7735 65.5804 12.1107V1.10851H65.5772ZM72.3232 18.5371V1.10851H78.823C80.0667 1.10851 81.1314 1.34404 82.0106 1.81171C82.893 2.27939 83.5644 2.94221 84.028 3.79345C84.4916 4.64806 84.725 5.6507 84.725 6.80139C84.725 7.95208 84.4884 8.95136 84.0184 9.78241C83.5452 10.6135 82.8643 11.2494 81.9722 11.6935C81.0802 12.1376 79.9996 12.3563 78.7335 12.3563H74.3822V9.39548H78.1708C78.8358 9.39548 79.3889 9.29791 79.827 9.10613C80.265 8.91435 80.5943 8.62499 80.8117 8.23807C81.0291 7.85114 81.1378 7.37337 81.1378 6.80139C81.1378 6.22941 81.0291 5.73482 80.8117 5.3378C80.5943 4.94077 80.265 4.63796 79.8238 4.43272C79.3826 4.22412 78.8262 4.12318 78.1548 4.12318H75.8049V18.5371H72.3232ZM81.2177 10.6067L85.3101 18.5371H81.4671L77.4611 10.6067H81.2177ZM87.5673 18.5371V1.10851H94.0671C95.3108 1.10851 96.3754 1.34404 97.2546 1.81171C98.137 2.27939 98.8084 2.94221 99.272 3.79345C99.7356 4.64806 99.969 5.6507 99.969 6.80139C99.969 7.95208 99.7324 8.95136 99.2624 9.78241C98.7893 10.6135 98.1083 11.2494 97.2163 11.6935C96.3243 12.1376 95.2436 12.3563 93.9775 12.3563H89.6262V9.39548H93.4149C94.0799 9.39548 94.633 9.29791 95.071 9.10613C95.509 8.91435 95.8383 8.62499 96.0557 8.23807C96.2731 7.85114 96.3818 7.37337 96.3818 6.80139C96.3818 6.22941 96.2731 5.73482 96.0557 5.3378C95.8383 4.94077 95.509 4.63796 95.0678 4.43272C94.6266 4.22412 94.0703 4.12318 93.3989 4.12318H91.049V18.5371H87.5673ZM96.4617 10.6067L100.554 18.5371H96.7111L92.7051 10.6067H96.4617ZM117.947 9.82278C117.947 11.7238 117.608 13.3388 116.93 14.6745C116.252 16.0069 115.328 17.023 114.164 17.7262C112.997 18.426 111.69 18.7759 110.235 18.7759C108.78 18.7759 107.457 18.4227 106.293 17.7195C105.129 17.0163 104.208 15.9968 103.534 14.6644C102.859 13.332 102.52 11.717 102.52 9.82278C102.52 7.92852 102.859 6.3068 103.534 4.97106C104.208 3.63868 105.129 2.62258 106.293 1.91938C107.457 1.21955 108.771 0.869629 110.235 0.869629C111.699 0.869629 112.997 1.21955 114.164 1.91938C115.331 2.61921 116.252 3.63532 116.93 4.97106C117.608 6.30343 117.947 7.92179 117.947 9.82278ZM114.417 9.82278C114.417 8.59135 114.244 7.55506 113.899 6.70718C113.554 5.86267 113.068 5.22003 112.438 4.78264C111.811 4.34524 111.076 4.12655 110.235 4.12655C109.394 4.12655 108.659 4.34524 108.032 4.78264C107.406 5.22003 106.92 5.85931 106.571 6.70718C106.226 7.55169 106.053 8.59135 106.053 9.82278C106.053 11.0542 106.226 12.0905 106.571 12.9384C106.916 13.7829 107.402 14.4255 108.032 14.8629C108.659 15.3003 109.394 15.519 110.235 15.519C111.076 15.519 111.811 15.3003 112.438 14.8629C113.065 14.4255 113.551 13.7863 113.899 12.9384C114.244 12.0939 114.417 11.0542 114.417 9.82278ZM120.91 1.10851H125.204L129.741 12.8173H129.933L134.469 1.10851H138.763V18.5371H135.384V7.19168H135.246L130.985 18.4496H128.686L124.424 7.14794H124.287V18.5337H120.907V1.10851H120.91ZM145.503 1.10851V18.5371H142.021V1.10851H145.503ZM162.528 1.10851V18.5371H159.519L152.354 7.56851H152.233V18.5371H148.751V1.10851H151.808L158.918 12.0703H159.062V1.10851H162.528ZM171.624 18.5371H165.786V1.10851H171.672C173.328 1.10851 174.754 1.45507 175.949 2.15154C177.145 2.848 178.066 3.84392 178.712 5.14265C179.358 6.44138 179.68 7.99582 179.68 9.80596C179.68 11.6161 179.358 13.1806 178.712 14.4861C178.066 15.7916 177.142 16.7908 175.937 17.4907C174.731 18.1871 173.296 18.5371 171.62 18.5371H171.624ZM169.267 15.3811H171.48C172.509 15.3811 173.376 15.1859 174.082 14.799C174.789 14.4121 175.32 13.8065 175.674 12.9855C176.032 12.1645 176.208 11.1047 176.208 9.80596C176.208 8.50723 176.029 7.46421 175.674 6.64998C175.316 5.83239 174.789 5.23349 174.085 4.84657C173.382 4.45964 172.516 4.26786 171.486 4.26786H169.267V15.3811ZM65.897 1.10851H69.3787V12.427C69.3787 13.6988 69.0941 14.8091 68.5218 15.7613C67.9495 16.7135 67.1534 17.457 66.1304 17.9853C65.1073 18.5169 63.9147 18.7793 62.5527 18.7793C61.1908 18.7793 59.9886 18.5135 58.9655 17.9853C57.9424 17.4537 57.1464 16.7135 56.5773 15.7613C56.0082 14.8091 55.7236 13.6954 55.7236 12.427V1.10851H59.2053V12.1107C59.2053 12.7735 59.3428 13.3657 59.621 13.8805C59.8959 14.3953 60.286 14.8024 60.7911 15.0985C61.2963 15.3945 61.8813 15.5426 62.5527 15.5426C63.2241 15.5426 63.8156 15.3945 64.3176 15.0985C64.8195 14.8024 65.2064 14.3986 65.4845 13.8805C65.7595 13.3657 65.9002 12.7735 65.9002 12.1107V1.10851H65.897ZM72.643 18.5371V1.10851H79.1428C80.3865 1.10851 81.4511 1.34404 82.3303 1.81171C83.2127 2.27939 83.8841 2.94221 84.3477 3.79345C84.8113 4.64806 85.0447 5.6507 85.0447 6.80139C85.0447 7.95208 84.8081 8.95136 84.3381 9.78241C83.865 10.6135 83.184 11.2494 82.292 11.6935C81.4 12.1376 80.3193 12.3563 79.0532 12.3563H74.7019V9.39548H78.4905C79.1556 9.39548 79.7087 9.29791 80.1467 9.10613C80.5847 8.91435 80.914 8.62499 81.1314 8.23807C81.3488 7.85114 81.4575 7.37337 81.4575 6.80139C81.4575 6.22941 81.3488 5.73482 81.1314 5.3378C80.914 4.94077 80.5847 4.63796 80.1435 4.43272C79.7023 4.22412 79.146 4.12318 78.4746 4.12318H76.1247V18.5371H72.643ZM81.5374 10.6067L85.6298 18.5371H81.7868L77.7808 10.6067H81.5374ZM87.887 18.5371V1.10851H94.3868C95.6305 1.10851 96.6951 1.34404 97.5743 1.81171C98.4568 2.27939 99.1282 2.94221 99.5917 3.79345C100.055 4.64806 100.289 5.6507 100.289 6.80139C100.289 7.95208 100.052 8.95136 99.5822 9.78241C99.109 10.6135 98.428 11.2494 97.536 11.6935C96.644 12.1376 95.5633 12.3563 94.2973 12.3563H89.9459V9.39548H93.7346C94.3996 9.39548 94.9527 9.29791 95.3907 9.10613C95.8287 8.91435 96.158 8.62499 96.3754 8.23807C96.5928 7.85114 96.7015 7.37337 96.7015 6.80139C96.7015 6.22941 96.5928 5.73482 96.3754 5.3378C96.158 4.94077 95.8287 4.63796 95.3875 4.43272C94.9463 4.22412 94.39 4.12318 93.7186 4.12318H91.3687V18.5371H87.887ZM96.7815 10.6067L100.874 18.5371H97.0308L93.0248 10.6067H96.7815ZM118.266 9.82278C118.266 11.7238 117.927 13.3388 117.25 14.6745C116.572 16.0069 115.648 17.023 114.484 17.7262C113.317 18.426 112.009 18.7759 110.555 18.7759C109.1 18.7759 107.776 18.4227 106.613 17.7195C105.449 17.0163 104.528 15.9968 103.854 14.6644C103.179 13.332 102.84 11.717 102.84 9.82278C102.84 7.92852 103.179 6.3068 103.854 4.97106C104.528 3.63868 105.449 2.62258 106.613 1.91938C107.776 1.21955 109.09 0.869629 110.555 0.869629C112.019 0.869629 113.317 1.21955 114.484 1.91938C115.651 2.61921 116.572 3.63532 117.25 4.97106C117.927 6.30343 118.266 7.92179 118.266 9.82278ZM114.737 9.82278C114.737 8.59135 114.564 7.55506 114.219 6.70718C113.873 5.86267 113.387 5.22003 112.758 4.78264C112.131 4.34524 111.396 4.12655 110.555 4.12655C109.714 4.12655 108.979 4.34524 108.352 4.78264C107.725 5.22003 107.239 5.85931 106.891 6.70718C106.546 7.55169 106.373 8.59135 106.373 9.82278C106.373 11.0542 106.546 12.0905 106.891 12.9384C107.236 13.7829 107.722 14.4255 108.352 14.8629C108.979 15.3003 109.714 15.519 110.555 15.519C111.396 15.519 112.131 15.3003 112.758 14.8629C113.384 14.4255 113.87 13.7863 114.219 12.9384C114.564 12.0939 114.737 11.0542 114.737 9.82278ZM121.23 1.10851H125.524L130.061 12.8173H130.252L134.789 1.10851H139.083V18.5371H135.704V7.19168H135.566L131.304 18.4496H129.006L124.744 7.14794H124.606V18.5337H121.227V1.10851H121.23ZM145.823 1.10851V18.5371H142.341V1.10851H145.823ZM162.847 1.10851V18.5371H159.839L152.674 7.56851H152.553V18.5371H149.071V1.10851H152.127L159.238 12.0703H159.382V1.10851H162.847ZM171.943 18.5371H166.105V1.10851H171.991C173.647 1.10851 175.073 1.45507 176.269 2.15154C177.465 2.848 178.386 3.84392 179.031 5.14265C179.677 6.44138 180 7.99582 180 9.80596C180 11.6161 179.677 13.1806 179.031 14.4861C178.386 15.7916 177.462 16.7908 176.256 17.4907C175.051 18.1871 173.615 18.5371 171.94 18.5371H171.943ZM169.587 15.3811H171.799C172.829 15.3811 173.695 15.1859 174.402 14.799C175.108 14.4121 175.639 13.8065 175.994 12.9855C176.352 12.1645 176.528 11.1047 176.528 9.80596C176.528 8.50723 176.349 7.46421 175.994 6.64998C175.636 5.83239 175.108 5.23349 174.405 4.84657C173.702 4.45964 172.835 4.26786 171.806 4.26786H169.587V15.3811Z" fill="#FE5000"/>
</g>
<g clip-path="url(#clip2_3409_57942)">
<path fill-rule="evenodd" clip-rule="evenodd" d="M30.511 20H34.9153L31.1394 14.642C33.2837 13.3025 34.8686 11.2933 34.8686 7.87272C34.8686 3.16066 31.4569 0 27.5076 0H0V3.63905H27.5076C29.5174 3.63905 31.3258 5.26558 31.3258 7.87272C31.3258 10.7192 29.5174 12.1544 27.5076 12.1544H0V15.7454V20H3.8225V15.7902H27.5297L30.511 20Z" fill="#FE5000"/>
<path d="M14.2375 9.73917C15.2671 9.73917 16.1019 8.88267 16.1019 7.82613C16.1019 6.76958 15.2671 5.91309 14.2375 5.91309C13.2078 5.91309 12.373 6.76958 12.373 7.82613C12.373 8.88267 13.2078 9.73917 14.2375 9.73917Z" fill="#FE5000"/>
<path d="M26.9494 9.73917C27.9791 9.73917 28.8138 8.88267 28.8138 7.82613C28.8138 6.76958 27.9791 5.91309 26.9494 5.91309C25.9197 5.91309 25.085 6.76958 25.085 7.82613C25.085 8.88267 25.9197 9.73917 26.9494 9.73917Z" fill="#FE5000"/>
</g>
</g>
<defs>
<clipPath id="clip0_3409_57942">
<rect width="180" height="20" fill="white"/>
</clipPath>
<clipPath id="clip1_3409_57942">
<rect width="140.339" height="17.913" fill="white" transform="translate(39.6611 0.869629)"/>
</clipPath>
<clipPath id="clip2_3409_57942">
<rect width="34.9153" height="20" fill="white"/>
</clipPath>
</defs>
</svg>
