<svg width="22" height="21" viewBox="0 0 22 21" fill="none" xmlns="http://www.w3.org/2000/svg">
<path d="M18.0588 14.1437L17.5811 14.6323C17.4307 14.7849 17.2307 14.869 17.0169 14.869C16.8033 14.869 16.603 14.7849 16.4527 14.6323L11.0032 9.0964L5.54749 14.6384C5.39738 14.791 5.19712 14.875 4.98346 14.875C4.7698 14.875 4.56941 14.791 4.41919 14.6384L3.94135 14.1528C3.63023 13.837 3.63023 13.3226 3.94135 13.0068L10.4371 6.38458C10.5872 6.2321 10.7872 6.12466 11.0027 6.12466H11.0052C11.219 6.12466 11.419 6.23222 11.5692 6.38458L18.0588 12.9888C18.2092 13.1413 18.2917 13.3506 18.2919 13.5677C18.2919 13.7849 18.2092 13.9913 18.0588 14.1437Z" fill="#7A8395"/>
</svg>
