<svg width="20" height="21" viewBox="0 0 20 21" fill="none" xmlns="http://www.w3.org/2000/svg">
<path d="M16.4263 3.93441C15.96 3.63437 15.3417 3.7736 15.0462 4.24798C14.7508 4.72236 14.8888 5.34951 15.355 5.64954C17.0113 6.7168 18 8.52969 18 10.5C18 12.4703 17.0113 14.2836 15.355 15.3505C14.8888 15.6505 14.7508 16.2781 15.0462 16.752C15.3175 17.187 15.9263 17.3881 16.4263 17.0656C18.6642 15.6243 20 13.1698 20 10.5C20 7.83018 18.6642 5.37575 16.4263 3.93441ZM14.0929 7.24704C13.6104 6.97917 13.0017 7.15563 12.7342 7.64694C12.4679 8.13825 12.6442 8.75566 13.1279 9.02692C13.6658 9.32695 14 9.89189 14 10.5C14 11.1081 13.6658 11.673 13.1283 11.9731C12.6446 12.2443 12.4683 12.8618 12.7346 13.3531C13.0025 13.8465 13.6117 14.0217 14.0933 13.753C15.2696 13.0949 16.0004 11.8487 16.0004 10.5C16.0004 9.15133 15.2696 7.90465 14.0929 7.24704ZM9.65875 2.375C9.4125 2.375 9.16208 2.46725 8.95958 2.67334L5.2525 6.4375H1C0.4475 6.4375 0 6.89199 0 7.45312V13.5469C0 14.1076 0.4475 14.5625 1 14.5625H5.2525L8.95958 18.3267C9.1625 18.5327 9.41292 18.625 9.65875 18.625C10.1725 18.625 10.6667 18.2221 10.6667 17.6085V3.39147C10.6667 2.77744 10.1721 2.375 9.65875 2.375ZM8.66667 15.1571L6.08083 12.5312H2V8.46875H6.08083L8.66667 5.84294V15.1571V15.1571Z" fill="black"/>
</svg>
