<svg width="20" height="20" viewBox="0 0 20 20" fill="none" xmlns="http://www.w3.org/2000/svg">
<path d="M4.25734 16.9928C3.90993 17.013 3.56825 16.8975 3.30438 16.6707C2.78396 16.1473 2.78396 15.302 3.30438 14.7786L14.6998 3.38555C15.2411 2.87916 16.0905 2.90731 16.597 3.44847C17.055 3.93785 17.0817 4.69002 16.6595 5.21059L5.19687 16.6707C4.9364 16.8942 4.60021 17.0095 4.25734 16.9928Z" fill="white"/>
<path d="M15.6383 16.9892C15.2862 16.9877 14.9487 16.848 14.6987 16.6001L3.30321 5.207C2.82107 4.64409 2.88662 3.79695 3.44965 3.31487C3.95217 2.88463 4.69328 2.88463 5.19575 3.31487L16.6583 14.7079C17.1995 15.2144 17.2275 16.0636 16.7208 16.6047C16.7007 16.6262 16.6799 16.647 16.6583 16.6671C16.3777 16.9112 16.0083 17.0278 15.6383 16.9892Z" fill="white"/>
</svg>
