<svg width="20" height="21" viewBox="0 0 20 21" fill="none" xmlns="http://www.w3.org/2000/svg">
<g clip-path="url(#clip0_3713_24)">
<path d="M16.875 3H15V0.96875C15 0.709883 14.7901 0.5 14.5312 0.5H12.9688C12.7099 0.5 12.5 0.709883 12.5 0.96875V3H7.5V0.96875C7.5 0.709883 7.29012 0.5 7.03125 0.5H5.46875C5.20988 0.5 5 0.709883 5 0.96875V3H3.125C2.08945 3 1.25 3.83945 1.25 4.875V18.625C1.25 19.6605 2.08945 20.5 3.125 20.5H16.875C17.9105 20.5 18.75 19.6605 18.75 18.625V4.875C18.75 3.83945 17.9105 3 16.875 3ZM16.6406 18.625H3.35938C3.29721 18.625 3.2376 18.6003 3.19365 18.5564C3.14969 18.5124 3.125 18.4528 3.125 18.3906V6.75H16.875V18.3906C16.875 18.4528 16.8503 18.5124 16.8064 18.5564C16.7624 18.6003 16.7028 18.625 16.6406 18.625ZM14.5762 10.7871L9.01727 16.3015C8.83348 16.4838 8.53668 16.4827 8.35434 16.2989L5.42109 13.3419C5.23879 13.1581 5.23996 12.8613 5.42375 12.6789L6.31121 11.7986C6.495 11.6163 6.7918 11.6175 6.9741 11.8013L8.69691 13.5381L13.0357 9.23414C13.2195 9.05184 13.5162 9.05301 13.6986 9.2368L14.5789 10.1242C14.7612 10.308 14.76 10.6048 14.5762 10.7871Z" fill="#7A8395"/>
</g>
<defs>
<clipPath id="clip0_3713_24">
<rect width="20" height="20" fill="white" transform="translate(0 0.5)"/>
</clipPath>
</defs>
</svg>
