<svg width="20" height="21" viewBox="0 0 20 21" fill="none" xmlns="http://www.w3.org/2000/svg">
<g clip-path="url(#clip0_3713_19)">
<path d="M10.7461 9.64453L12.5742 11.4727C12.6523 11.5508 12.6523 11.6758 12.5742 11.7539L8.10156 16.2266L6.21875 16.4375C5.96875 16.4648 5.75391 16.2539 5.78125 16L5.99219 14.1172L10.4648 9.64453C10.543 9.56641 10.668 9.56641 10.7461 9.64453ZM13.9883 9.22266L12.9961 8.23047C12.6875 7.92187 12.1875 7.92187 11.8789 8.23047L11.1172 8.99219C11.0391 9.07031 11.0391 9.19531 11.1172 9.27344L12.9453 11.1016C13.0234 11.1797 13.1484 11.1797 13.2266 11.1016L13.9883 10.3398C14.2969 10.0312 14.2969 9.53125 13.9883 9.22266ZM18.75 4.875V18.625C18.75 19.6602 17.9102 20.5 16.875 20.5H3.125C2.08984 20.5 1.25 19.6602 1.25 18.625V4.875C1.25 3.83984 2.08984 3 3.125 3H5V0.96875C5 0.710938 5.21094 0.5 5.46875 0.5H7.03125C7.28906 0.5 7.5 0.710938 7.5 0.96875V3H12.5V0.96875C12.5 0.710938 12.7109 0.5 12.9688 0.5H14.5312C14.7891 0.5 15 0.710938 15 0.96875V3H16.875C17.9102 3 18.75 3.83984 18.75 4.875ZM16.875 18.3906V6.75H3.125V18.3906C3.125 18.5195 3.23047 18.625 3.35938 18.625H16.6406C16.7695 18.625 16.875 18.5195 16.875 18.3906Z" fill="#7A8395"/>
</g>
<defs>
<clipPath id="clip0_3713_19">
<rect width="20" height="20" fill="white" transform="translate(0 0.5)"/>
</clipPath>
</defs>
</svg>
