<svg width="22" height="23" viewBox="0 0 22 23" fill="none" xmlns="http://www.w3.org/2000/svg">
<g clip-path="url(#clip0_3655_3091)">
<path d="M14.75 14.75H10.25C10.1125 14.75 10 14.8625 10 15V16C10 16.1375 10.1125 16.25 10.25 16.25H14.75C14.8875 16.25 15 16.1375 15 16V15C15 14.8625 14.8875 14.75 14.75 14.75ZM7.5 16.5H8.5C8.775 16.5 9 16.275 9 16V15C9 14.725 8.775 14.5 8.5 14.5H7.5C7.225 14.5 7 14.725 7 15V16C7 16.275 7.225 16.5 7.5 16.5ZM7.5 8.5H8.5C8.775 8.5 9 8.275 9 8V7C9 6.725 8.775 6.5 8.5 6.5H7.5C7.225 6.5 7 6.725 7 7V8C7 8.275 7.225 8.5 7.5 8.5ZM10.25 8.25H14.75C14.8875 8.25 15 8.1375 15 8V7C15 6.8625 14.8875 6.75 14.75 6.75H10.25C10.1125 6.75 10 6.8625 10 7V8C10 8.1375 10.1125 8.25 10.25 8.25ZM17 3.5H5C4.44687 3.5 4 3.94687 4 4.5V18.5C4 19.0531 4.44687 19.5 5 19.5H17C17.5531 19.5 18 19.0531 18 18.5V4.5C18 3.94687 17.5531 3.5 17 3.5ZM16.5 18H5.5V5H16.5V18ZM8.20625 12.45C8.27188 12.5156 8.37812 12.5156 8.44375 12.45L10.45 10.4625C10.5156 10.3969 10.5156 10.2906 10.45 10.225L10.0563 9.82812C9.99062 9.7625 9.88438 9.7625 9.81875 9.82812L8.33125 11.3031L7.6875 10.65C7.62188 10.5844 7.51562 10.5844 7.45 10.65L7.05312 11.0437C6.9875 11.1094 6.9875 11.2156 7.05312 11.2812L8.20625 12.45ZM14.75 10.75H11.4187C11.3594 10.9062 11.275 11.0531 11.1531 11.1719L10.0687 12.25H14.75C14.8875 12.25 15 12.1375 15 12V11C15 10.8625 14.8875 10.75 14.75 10.75Z" fill="#21232A"/>
</g>
<defs>
<clipPath id="clip0_3655_3091">
<rect width="14" height="16" fill="white" transform="translate(4 3.5)"/>
</clipPath>
</defs>
</svg>
