<svg width="20" height="20" viewBox="0 0 20 20" fill="none" xmlns="http://www.w3.org/2000/svg">
<path d="M10 0.3125C4.64973 0.3125 0.3125 4.64973 0.3125 10C0.3125 15.3503 4.64973 19.6875 10 19.6875C15.3503 19.6875 19.6875 15.3503 19.6875 10C19.6875 4.64973 15.3503 0.3125 10 0.3125ZM10 2.1875C14.3177 2.1875 17.8125 5.68168 17.8125 10C17.8125 14.3177 14.3183 17.8125 10 17.8125C5.68234 17.8125 2.1875 14.3183 2.1875 10C2.1875 5.68234 5.68168 2.1875 10 2.1875ZM15.4767 7.27605L14.5964 6.38863C14.4141 6.20484 14.1173 6.20363 13.9335 6.38598L8.41195 11.8632L6.07633 9.50859C5.89402 9.3248 5.59723 9.32359 5.41344 9.5059L4.52598 10.3862C4.34219 10.5685 4.34098 10.8653 4.52332 11.0491L8.06945 14.624C8.25176 14.8078 8.54855 14.809 8.73234 14.6266L15.4741 7.93898C15.6579 7.75664 15.659 7.45984 15.4767 7.27605Z" fill="#2958A2"/>
</svg>
