<svg width="20" height="20" viewBox="0 0 20 20" fill="none" xmlns="http://www.w3.org/2000/svg">
<path d="M10 7C9.66879 7.00518 9.34003 7.0578 9.02375 7.15625C9.17005 7.41354 9.24794 7.70403 9.25 8C9.25 8.22981 9.20473 8.45738 9.11679 8.6697C9.02884 8.88202 8.89994 9.07493 8.73743 9.23744C8.57493 9.39994 8.38201 9.52884 8.16969 9.61679C7.95737 9.70474 7.72981 9.75 7.5 9.75C7.20403 9.74795 6.91353 9.67005 6.65624 9.52375C6.45325 10.2277 6.47691 10.9778 6.72387 11.6676C6.97083 12.3574 7.42856 12.952 8.03224 13.3672C8.63591 13.7824 9.35493 13.9972 10.0874 13.981C10.8199 13.9649 11.5288 13.7187 12.1136 13.2773C12.6984 12.8359 13.1295 12.2217 13.3458 11.5217C13.5622 10.8217 13.5528 10.0713 13.319 9.37696C13.0852 8.68258 12.6388 8.07937 12.0432 7.65277C11.4475 7.22616 10.7327 6.99779 10 7ZM18.8913 10.0437C17.1966 6.73719 13.8416 4.5 10 4.5C6.15843 4.5 2.80249 6.73875 1.10873 10.0441C1.03725 10.1855 1 10.3417 1 10.5002C1 10.6586 1.03725 10.8148 1.10873 10.9563C2.80342 14.2628 6.15843 16.5 10 16.5C13.8416 16.5 17.1975 14.2612 18.8913 10.9559C18.9628 10.8145 19 10.6583 19 10.4998C19 10.3414 18.9628 10.1852 18.8913 10.0437ZM10 15C6.91718 15 4.09093 13.2812 2.56467 10.5C4.09093 7.71875 6.91687 6 10 6C13.0831 6 15.9091 7.71875 17.4353 10.5C15.9094 13.2812 13.0831 15 10 15Z" fill="#424A5A"/>
</svg>
