<svg width="20" height="21" viewBox="0 0 20 21" fill="none" xmlns="http://www.w3.org/2000/svg">
<path d="M10 7.5C9.66879 7.50518 9.34003 7.5578 9.02375 7.65625C9.17005 7.91354 9.24794 8.20403 9.25 8.5C9.25 8.72981 9.20473 8.95738 9.11679 9.1697C9.02884 9.38202 8.89994 9.57493 8.73743 9.73744C8.57493 9.89994 8.38201 10.0288 8.16969 10.1168C7.95737 10.2047 7.72981 10.25 7.5 10.25C7.20403 10.2479 6.91353 10.1701 6.65624 10.0237C6.45325 10.7277 6.47691 11.4778 6.72387 12.1676C6.97083 12.8574 7.42856 13.452 8.03224 13.8672C8.63591 14.2824 9.35493 14.4972 10.0874 14.481C10.8199 14.4649 11.5288 14.2187 12.1136 13.7773C12.6984 13.3359 13.1295 12.7217 13.3458 12.0217C13.5622 11.3217 13.5528 10.5713 13.319 9.87696C13.0852 9.18258 12.6388 8.57937 12.0432 8.15277C11.4475 7.72616 10.7327 7.49779 10 7.5ZM18.8913 10.5437C17.1966 7.23719 13.8416 5 10 5C6.15843 5 2.80249 7.23875 1.10873 10.5441C1.03725 10.6855 1 10.8417 1 11.0002C1 11.1586 1.03725 11.3148 1.10873 11.4563C2.80342 14.7628 6.15843 17 10 17C13.8416 17 17.1975 14.7612 18.8913 11.4559C18.9628 11.3145 19 11.1583 19 10.9998C19 10.8414 18.9628 10.6852 18.8913 10.5437ZM10 15.5C6.91718 15.5 4.09093 13.7812 2.56467 11C4.09093 8.21875 6.91687 6.5 10 6.5C13.0831 6.5 15.9091 8.21875 17.4353 11C15.9094 13.7812 13.0831 15.5 10 15.5Z" fill="#21232A"/>
</svg>
