<svg width="10" height="10" viewBox="0 0 10 10" fill="none" xmlns="http://www.w3.org/2000/svg">
<path d="M9.89947 5.26543L5.71296 9.89043C5.57892 10.0373 5.36218 10.0373 5.22815 9.89043L4.66348 9.27168C4.52945 9.1248 4.52945 8.8873 4.66348 8.74043L8.04292 4.9998L4.66348 1.25918C4.52945 1.1123 4.52945 0.874805 4.66348 0.72793L5.22815 0.10918C5.36218 -0.0376953 5.57892 -0.0376953 5.71296 0.10918L9.89947 4.73418C10.0335 4.88105 10.0335 5.11855 9.89947 5.26543ZM5.33652 4.73418L1.15001 0.10918C1.01597 -0.0376953 0.79923 -0.0376953 0.665193 0.10918L0.100528 0.72793C-0.0335092 0.874805 -0.0335092 1.1123 0.100528 1.25918L3.47997 4.9998L0.100528 8.74043C-0.0335092 8.8873 -0.0335092 9.1248 0.100528 9.27168L0.665193 9.89043C0.79923 10.0373 1.01597 10.0373 1.15001 9.89043L5.33652 5.26543C5.47055 5.11855 5.47055 4.88105 5.33652 4.73418Z" fill="#BAC0CC"/>
</svg>
