<svg width="18" height="18" viewBox="0 0 18 18" fill="none" xmlns="http://www.w3.org/2000/svg">
<path d="M5.30278 11.5788C5.30278 11.2798 5.09536 11.1016 4.72938 11.1016C4.57993 11.1016 4.47872 11.1163 4.42578 11.1304V12.0895C4.48846 12.1036 4.56552 12.1083 4.67173 12.1083C5.06183 12.1083 5.30278 11.9113 5.30278 11.5788Z" fill="#121F3E"/>
<path d="M7.56683 11.1172C7.40294 11.1172 7.29702 11.1313 7.23438 11.146V13.2701C7.29706 13.2848 7.39827 13.2848 7.48977 13.2848C8.15465 13.2896 8.58828 12.9236 8.58828 12.1481C8.59298 11.4737 8.19784 11.1172 7.56683 11.1172Z" fill="#121F3E"/>
<path d="M11.7763 0H4.54675C3.49058 0 2.63097 0.860202 2.63097 1.91577V8.99996H2.44386C2.01758 8.99996 1.67188 9.34533 1.67188 9.77198V14.4538C1.67188 14.8804 2.01755 15.2257 2.44386 15.2257H2.63097V16.0842C2.63097 17.1409 3.49058 18 4.54675 18H14.4111C15.4666 18 16.3263 17.1409 16.3263 16.0842V4.53412L11.7763 0ZM3.69711 10.6169C3.92335 10.5786 4.24136 10.5498 4.6894 10.5498C5.14218 10.5498 5.46489 10.6363 5.68172 10.8099C5.88885 10.9735 6.02863 11.2435 6.02863 11.5613C6.02863 11.879 5.92271 12.1491 5.72999 12.3321C5.47934 12.568 5.10865 12.6739 4.67502 12.6739C4.57852 12.6739 4.49201 12.6691 4.42437 12.6598V13.8207H3.69711V10.6169ZM14.4111 16.8267H4.54675C4.13779 16.8267 3.80478 16.4937 3.80478 16.0842V15.2257H13.0004C13.4268 15.2257 13.7724 14.8804 13.7724 14.4538V9.77198C13.7724 9.34533 13.4268 8.99996 13.0004 8.99996H3.80478V1.91577C3.80478 1.50742 4.13783 1.1744 4.54675 1.1744L11.3373 1.16731V3.67735C11.3373 4.41051 11.9322 5.00594 12.6659 5.00594L15.1248 4.99889L15.1525 16.0842C15.1525 16.4937 14.82 16.8267 14.4111 16.8267ZM6.49757 13.806V10.6169C6.76731 10.5739 7.11888 10.5498 7.4899 10.5498C8.1065 10.5498 8.50634 10.6604 8.81964 10.8964C9.1568 11.147 9.3686 11.5466 9.3686 12.1202C9.3686 12.7415 9.14236 13.1705 8.82902 13.4352C8.48715 13.7194 7.96676 13.8542 7.33101 13.8542C6.95028 13.8542 6.68054 13.8301 6.49757 13.806ZM11.7551 11.9178V12.515H10.5892V13.8207H9.85225V10.5739H11.8369V11.1758H10.5892V11.9178H11.7551Z" fill="#121F3E"/>
</svg>
