<svg width="40" height="40" viewBox="0 0 40 40" fill="none" xmlns="http://www.w3.org/2000/svg">
<g clip-path="url(#clip0_3665_2111)">
<path d="M20 0.625C9.30023 0.625 0.625 9.30336 0.625 20C0.625 30.7029 9.30023 39.375 20 39.375C30.6998 39.375 39.375 30.7029 39.375 20C39.375 9.30336 30.6998 0.625 20 0.625ZM20 35.625C11.3647 35.625 4.375 28.6382 4.375 20C4.375 11.3676 11.365 4.375 20 4.375C28.6321 4.375 35.625 11.3649 35.625 20C35.625 28.6352 28.6382 35.625 20 35.625ZM23.2812 27.5C23.2812 29.3093 21.8093 30.7812 20 30.7812C18.1907 30.7812 16.7188 29.3093 16.7188 27.5C16.7188 25.6907 18.1907 24.2188 20 24.2188C21.8093 24.2188 23.2812 25.6907 23.2812 27.5ZM16.9242 10.9843L17.4555 21.6093C17.4804 22.1083 17.8923 22.5 18.3918 22.5H21.6082C22.1077 22.5 22.5196 22.1083 22.5445 21.6093L23.0758 10.9843C23.1026 10.4488 22.6756 10 22.1395 10H17.8605C17.3244 10 16.8974 10.4488 16.9242 10.9843Z" fill="#121F3E"/>
</g>
<defs>
<clipPath id="clip0_3665_2111">
<rect width="40" height="40" fill="white"/>
</clipPath>
</defs>
</svg>
