<svg width="24" height="25" viewBox="0 0 24 25" fill="none" xmlns="http://www.w3.org/2000/svg">
<path d="M19.0588 8.85634L18.5811 8.3677C18.4307 8.21509 18.2307 8.13102 18.0169 8.13102C17.8033 8.13102 17.603 8.21509 17.4527 8.3677L12.0032 13.9036L6.54749 8.36155C6.39738 8.20895 6.19712 8.125 5.98346 8.125C5.7698 8.125 5.56941 8.20895 5.41919 8.36155L4.94135 8.84719C4.63023 9.163 4.63023 9.67742 4.94135 9.99323L11.4371 16.6154C11.5872 16.7679 11.7872 16.8753 12.0027 16.8753H12.0052C12.219 16.8753 12.419 16.7678 12.5692 16.6154L19.0588 10.0112C19.2092 9.85869 19.2917 9.64935 19.2919 9.43231C19.2919 9.21515 19.2092 9.00871 19.0588 8.85634Z" fill="#7A8395"/>
</svg>
