<svg width="16" height="17" viewBox="0 0 16 17" fill="none" xmlns="http://www.w3.org/2000/svg">
<path d="M13.6574 2.84305C10.5331 -0.280843 5.46764 -0.281191 2.34305 2.84305C-0.781191 5.96729 -0.780843 11.0328 2.34305 14.1574C5.46729 17.2809 10.5328 17.2813 13.6574 14.1574C16.7813 11.0328 16.7809 5.96764 13.6574 2.84305ZM9.04337 11.9786C9.04337 12.5549 8.57623 13.0221 7.99987 13.0221C7.42351 13.0221 6.95637 12.5549 6.95637 11.9786V7.80455C6.95637 7.22819 7.42351 6.76105 7.99987 6.76105C8.57623 6.76105 9.04337 7.22819 9.04337 7.80455V11.9786ZM7.98143 6.02086C7.38038 6.02086 6.97967 5.59511 6.9922 5.06953C6.97967 4.51857 7.38038 4.10569 7.99361 4.10569C8.60719 4.10569 8.99537 4.51891 9.00824 5.06953C9.00789 5.59511 8.60753 6.02086 7.98143 6.02086Z" fill="#57BD7A"/>
</svg>
