<svg width="20" height="21" viewBox="0 0 20 21" fill="none" xmlns="http://www.w3.org/2000/svg">
<path d="M5.00938 8.70563H4.99375C4.99375 8.70563 4.85938 9.42406 4.75 9.84L4.40625 11.1222H5.59062L5.25625 9.84C5.14375 9.42406 5.00938 8.70563 5.00938 8.70563ZM19.25 5H0.75C0.334375 5 0 5.36781 0 5.825V15.175C0 15.6322 0.334375 16 0.75 16H19.25C19.6656 16 20 15.6322 20 15.175V5.825C20 5.36781 19.6656 5 19.25 5ZM7.2875 13.8H6.58125C6.50038 13.7999 6.42169 13.7711 6.35693 13.7178C6.29216 13.6646 6.24479 13.5897 6.22188 13.5044L5.93125 12.4147H4.05937L3.775 13.5009C3.72813 13.6762 3.58125 13.8 3.41563 13.8H2.7125C2.45625 13.8 2.275 13.5216 2.35625 13.2534L4.14062 7.47844C4.19375 7.31 4.33437 7.2 4.49687 7.2H5.50313C5.6625 7.2 5.80625 7.31344 5.85938 7.47844L7.64375 13.2534C7.725 13.5216 7.54375 13.8 7.2875 13.8ZM18.75 14.625H10V6.375H18.75V14.625ZM11.625 9.5375H15.0875C14.8906 9.9775 14.6156 10.4278 14.2781 10.8609C14.0719 10.5928 13.8781 10.3178 13.7063 10.0359C13.5969 9.85375 13.375 9.79875 13.2031 9.91219L12.775 10.1941C12.5906 10.3144 12.5375 10.5825 12.6562 10.7784C12.8594 11.1119 13.1062 11.4694 13.3906 11.8303C13.1094 12.095 12.8094 12.3391 12.4937 12.5591C12.325 12.6759 12.2719 12.92 12.3719 13.1091L12.6187 13.5869C12.725 13.7897 12.9625 13.8584 13.1438 13.7312C13.5344 13.4597 13.9125 13.1469 14.2688 12.81C14.6031 13.14 14.9656 13.4494 15.35 13.7244C15.5312 13.8516 15.775 13.7897 15.8813 13.5834L16.1313 13.1056C16.2281 12.9166 16.1781 12.6759 16.0125 12.5556C15.725 12.3494 15.4375 12.1053 15.1625 11.8372C15.2094 11.7787 15.2531 11.7238 15.2969 11.6653C15.8313 10.9572 16.2219 10.2319 16.4469 9.53406H16.875C17.0812 9.53406 17.25 9.34844 17.25 9.12156V8.57156C17.25 8.34469 17.0812 8.15906 16.875 8.15906H14.875V7.60906C14.875 7.38219 14.7063 7.19656 14.5 7.19656H14C13.7937 7.19656 13.625 7.38219 13.625 7.60906V8.15906H11.625C11.4187 8.15906 11.25 8.34469 11.25 8.57156V9.12156C11.25 9.35187 11.4187 9.5375 11.625 9.5375Z" fill="#21232A"/>
</svg>
