<svg width="20" height="20" viewBox="0 0 20 20" fill="none" xmlns="http://www.w3.org/2000/svg">
<path d="M11.8194 8.18063C13.416 9.77722 13.5187 12.3146 12.1241 14.0294C11.9291 14.2709 12.0371 14.1502 9.46975 16.7175C7.7605 18.4267 4.99268 18.4283 3.28256 16.7175C1.57284 15.0084 1.57212 12.2408 3.28256 10.5303C4.30672 9.50616 4.9024 8.90847 5.26409 8.54728C5.49731 8.31441 5.89943 8.47372 5.90428 8.80328C5.91009 9.20158 5.95983 9.59802 6.05259 9.98541C6.08278 10.1113 6.04409 10.2438 5.95253 10.3353L4.51975 11.7678C3.49615 12.792 3.49203 14.4519 4.51975 15.4803C5.54397 16.5039 7.20387 16.508 8.23225 15.4803L10.5819 13.1303C11.6044 12.1077 11.6062 10.4424 10.5819 9.41813C10.3744 9.21026 10.1334 9.03881 9.869 8.91097C9.72453 8.84119 9.64456 8.68441 9.66397 8.52516C9.70634 8.1776 9.86072 7.84125 10.1269 7.575L10.2637 7.43829C10.3769 7.32497 10.5504 7.29472 10.6937 7.3666C11.0999 7.57047 11.4807 7.84194 11.8194 8.18063ZM16.7174 3.28251C15.0073 1.57173 12.2395 1.57326 10.5302 3.28251C7.96287 5.84988 8.07094 5.72907 7.87587 5.97063C6.48128 7.68541 6.58397 10.2228 8.18056 11.8194C8.51925 12.1581 8.90012 12.4295 9.30634 12.6334C9.44953 12.7053 9.62303 12.675 9.73634 12.5617L9.87306 12.425C10.1393 12.1588 10.2937 11.8224 10.336 11.4748C10.3554 11.3156 10.2755 11.1588 10.131 11.089C9.86656 10.9612 9.62555 10.7898 9.41806 10.5819C8.39378 9.55759 8.39562 7.89235 9.41806 6.86969L11.7677 4.5197C12.7961 3.49198 14.456 3.4961 15.4802 4.5197C16.508 5.54807 16.5038 7.20797 15.4802 8.23219L14.0475 9.66469C13.9559 9.75622 13.9172 9.88872 13.9474 10.0146C14.0402 10.402 14.0899 10.7985 14.0957 11.1967C14.1006 11.5263 14.5027 11.6856 14.7359 11.4527C15.0976 11.0916 15.6933 10.4939 16.7175 9.46972C18.4279 7.75925 18.4272 4.9916 16.7174 3.28251Z" fill="#424A5A"/>
</svg>
