<svg width="22" height="23" viewBox="0 0 22 23" fill="none" xmlns="http://www.w3.org/2000/svg">
<g clip-path="url(#clip0_3655_2292)">
<path d="M18.4243 6.31046L11.5671 2.16052C11.395 2.05604 11.1993 2.00098 11 2.00098C10.8007 2.00098 10.605 2.05604 10.4329 2.16052L3.57571 6.31083C3.21964 6.52606 3 6.92721 3 7.36139V15.6401C3 16.0747 3.21964 16.4755 3.57571 16.6911L10.4329 20.8414C10.605 20.9459 10.8007 21.0009 11 21.0009C11.1993 21.0009 11.395 20.9459 11.5671 20.8414L18.4243 16.6911C18.7804 16.4755 19 16.0743 19 15.6401V7.36139C19 6.92721 18.7804 6.52606 18.4243 6.31046ZM11 3.87868L16.4411 7.17176L11 10.47L5.55893 7.17176L11 3.87868ZM4.71429 8.72219L10.1429 12.0123V18.6044L4.71429 15.3188V8.72219ZM11.8571 18.6044V12.0123L17.2857 8.72219V15.3188L11.8571 18.6044Z" fill="#21232A"/>
</g>
<defs>
<clipPath id="clip0_3655_2292">
<rect width="16" height="19" fill="white" transform="translate(3 2)"/>
</clipPath>
</defs>
</svg>
