<svg width="20" height="21" viewBox="0 0 20 21" fill="none" xmlns="http://www.w3.org/2000/svg">
<path d="M16.975 13.7804C16.4378 13.7804 15.9541 14.0031 15.5912 14.3577L13.3919 13.0479C13.5184 12.6904 13.6 12.3094 13.6 11.9051C13.6 10.0912 12.1909 8.62317 10.45 8.62317C10.2137 8.62317 9.98312 8.6554 9.76375 8.70815L8.85812 6.68627C9.28 6.29947 9.55 5.73979 9.55 5.10979C9.55 3.94354 8.64437 3 7.525 3C6.40562 3 5.5 3.94354 5.5 5.10979C5.5 6.27603 6.40562 7.21957 7.525 7.21957C7.55031 7.21957 7.57562 7.21371 7.60094 7.21078L8.54313 9.31178C7.79219 9.90955 7.3 10.8443 7.3 11.9051C7.3 13.7189 8.70906 15.187 10.45 15.187C11.3134 15.187 12.0981 14.8236 12.6662 14.2346L14.9781 15.6118C14.9669 15.7027 14.95 15.7964 14.95 15.8902C14.95 17.0565 15.8556 18 16.975 18C18.0944 18 19 17.0565 19 15.8902C19 14.724 18.0944 13.7804 16.975 13.7804ZM7.525 5.81012C7.15375 5.81012 6.85 5.49365 6.85 5.10686C6.85 4.72006 7.15375 4.40359 7.525 4.40359C7.89625 4.40359 8.2 4.72006 8.2 5.10686C8.2 5.49365 7.89625 5.81012 7.525 5.81012ZM10.45 13.7804C9.45719 13.7804 8.65 12.9394 8.65 11.9051C8.65 10.8707 9.45719 10.0297 10.45 10.0297C11.4428 10.0297 12.25 10.8707 12.25 11.9051C12.25 12.9394 11.4428 13.7804 10.45 13.7804ZM16.975 16.5935C16.6037 16.5935 16.3 16.277 16.3 15.8902C16.3 15.5034 16.6037 15.187 16.975 15.187C17.3462 15.187 17.65 15.5034 17.65 15.8902C17.65 16.277 17.3462 16.5935 16.975 16.5935ZM15.445 8.93964L14.905 8.18949L13.555 9.24438L14.095 9.99453L15.445 8.93964ZM17.2 8.62317C18.1928 8.62317 19 7.78218 19 6.7478C19 5.71342 18.1928 4.87244 17.2 4.87244C16.2072 4.87244 15.4 5.71342 15.4 6.7478C15.4 7.78218 16.2072 8.62317 17.2 8.62317ZM5.275 12.3739H6.625V11.4362H5.275V12.3739ZM2.8 10.0297C1.80719 10.0297 1 10.8707 1 11.9051C1 12.9394 1.80719 13.7804 2.8 13.7804C3.79281 13.7804 4.6 12.9394 4.6 11.9051C4.6 10.8707 3.79281 10.0297 2.8 10.0297Z" fill="black"/>
</svg>
