<svg width="20" height="21" viewBox="0 0 20 21" fill="none" xmlns="http://www.w3.org/2000/svg">
<path d="M19.799 10.1975L17.7768 8.53465V5.21798C17.7768 5.14431 17.7475 5.07366 17.6954 5.02156C17.6433 4.96947 17.5727 4.94021 17.499 4.94021H16.3879C16.3152 4.94065 16.2456 4.96955 16.194 5.02069C16.1424 5.07184 16.1129 5.14117 16.1118 5.21382V7.1659L11.2445 3.16937C10.8948 2.87819 10.4541 2.71875 9.999 2.71875C9.54393 2.71875 9.10324 2.87819 8.75351 3.16937L0.198998 10.1975C0.143046 10.2443 0.0968661 10.3017 0.0630949 10.3664C0.0293238 10.4311 0.00862282 10.5018 0.00217421 10.5744C-0.00427439 10.6471 0.00365564 10.7203 0.0255115 10.79C0.0473673 10.8596 0.0827209 10.9242 0.129553 10.9801L0.485109 11.4072C0.579671 11.5201 0.71519 11.5908 0.86188 11.6039C1.00857 11.6169 1.15443 11.5711 1.2674 11.4767L2.22122 10.6933V17.1624C2.22204 17.4569 2.33937 17.739 2.54757 17.9472C2.75576 18.1554 3.0379 18.2727 3.33233 18.2735H7.77678C8.07121 18.2727 8.35334 18.1554 8.56154 17.9472C8.76974 17.739 8.88706 17.4569 8.88789 17.1624V13.5513H11.1101V17.1624C11.1109 17.4569 11.2283 17.739 11.4365 17.9472C11.6447 18.1554 11.9268 18.2727 12.2212 18.2735H16.6657C16.9587 18.2729 17.2397 18.1568 17.4477 17.9504C17.6557 17.7439 17.7739 17.4638 17.7768 17.1708V10.6926L18.7327 11.4781C18.8457 11.5725 18.9915 11.6183 19.1382 11.6053C19.2849 11.5922 19.4204 11.5215 19.515 11.4086L19.8702 10.9819C19.9172 10.9258 19.9526 10.8609 19.9745 10.7911C19.9964 10.7213 20.0042 10.6478 19.9976 10.5749C19.991 10.502 19.97 10.4311 19.936 10.3664C19.9019 10.3016 19.8553 10.2442 19.799 10.1975ZM16.1049 16.6069H12.7768V12.9958C12.776 12.7013 12.6586 12.4192 12.4504 12.211C12.2422 12.0028 11.9601 11.8855 11.6657 11.8847H8.33233C8.0379 11.8855 7.75576 12.0028 7.54757 12.211C7.33937 12.4192 7.22205 12.7013 7.22122 12.9958V16.6069H3.88789V9.32458L9.999 4.30305L16.1101 9.3225L16.1049 16.6069Z" fill="#7A8395"/>
</svg>
