<svg width="23" height="23" viewBox="0 0 23 23" fill="none" xmlns="http://www.w3.org/2000/svg">
<g clip-path="url(#clip0_3450_19346)">
<path d="M0.84375 11.5C0.84375 17.3867 5.61328 22.1562 11.5 22.1562C17.3867 22.1562 22.1562 17.3867 22.1562 11.5C22.1562 5.61328 17.3867 0.84375 11.5 0.84375C5.61328 0.84375 0.84375 5.61328 0.84375 11.5ZM20.0938 11.5C20.0938 16.248 16.248 20.0938 11.5 20.0938C6.75195 20.0938 2.90625 16.248 2.90625 11.5C2.90625 6.75195 6.75195 2.90625 11.5 2.90625C16.248 2.90625 20.0938 6.75195 20.0938 11.5ZM11.9684 5.91836L17.1848 11.1348C17.3867 11.3367 17.3867 11.6633 17.1848 11.8652L11.9684 17.0816C11.7664 17.2836 11.4398 17.2836 11.2379 17.0816L10.3957 16.2395C10.1895 16.0332 10.1938 15.7023 10.4043 15.5004L13.425 12.6172H6.51562C6.23203 12.6172 6 12.3852 6 12.1016V10.8984C6 10.6148 6.23203 10.3828 6.51562 10.3828H13.425L10.4043 7.49961C10.1938 7.29766 10.1895 6.9668 10.3957 6.76055L11.2379 5.91836C11.4398 5.71641 11.7664 5.71641 11.9684 5.91836Z" fill="#424A5A"/>
</g>
<defs>
<clipPath id="clip0_3450_19346">
<rect width="22" height="22" fill="white" transform="translate(0.5 0.5)"/>
</clipPath>
</defs>
</svg>
