<svg width="16" height="16" viewBox="0 0 16 16" fill="none" xmlns="http://www.w3.org/2000/svg">
<g clip-path="url(#clip0_3005_2384)">
<path d="M15.75 8C15.75 3.71875 12.2812 0.25 8 0.25C3.71875 0.25 0.25 3.71875 0.25 8C0.25 12.2812 3.71875 15.75 8 15.75C12.2812 15.75 15.75 12.2812 15.75 8ZM1.75 8C1.75 4.54688 4.54688 1.75 8 1.75C11.4531 1.75 14.25 4.54688 14.25 8C14.25 11.4531 11.4531 14.25 8 14.25C4.54688 14.25 1.75 11.4531 1.75 8ZM4 8.625V7.375C4 7.16875 4.16875 7 4.375 7H8V4.90625C8 4.57188 8.40312 4.40625 8.64062 4.64062L11.7344 7.73438C11.8813 7.88125 11.8813 8.11875 11.7344 8.26562L8.64062 11.3594C8.40312 11.5969 8 11.4281 8 11.0938V9H4.375C4.16875 9 4 8.83125 4 8.625Z" fill="white"/>
</g>
<defs>
<clipPath id="clip0_3005_2384">
<rect width="16" height="16" fill="white"/>
</clipPath>
</defs>
</svg>
