<svg width="23" height="23" viewBox="0 0 23 23" fill="none" xmlns="http://www.w3.org/2000/svg">
<g clip-path="url(#clip0_3419_83170)">
<path d="M2.01089 18.8782C2.08966 18.8782 2.16945 18.869 2.2477 18.8515L7.09355 17.7333C7.28609 17.689 7.46267 17.5912 7.60218 17.4512L15.6794 9.37393C15.6836 9.36981 15.6892 9.36878 15.6933 9.36466C15.6975 9.36054 15.6985 9.35539 15.7026 9.35128L17.9559 7.09747C18.5515 6.50235 18.88 5.7075 18.88 4.86116C18.88 4.01482 18.5515 3.21996 17.9564 2.62485L17.2105 1.87838C16.0177 0.68507 13.9286 0.68507 12.7368 1.87838L10.4779 4.13734C10.4758 4.1394 10.4727 4.14043 10.4701 4.14249C10.4676 4.14455 10.4671 4.14764 10.465 4.15073L2.38361 12.2321C2.24358 12.3721 2.14629 12.5482 2.1015 12.7407L0.983344 17.5871C0.902005 17.9413 1.00857 18.312 1.26546 18.5694C1.4652 18.7691 1.73444 18.8782 2.01089 18.8782ZM14.2277 3.36926C14.622 2.97595 15.3258 2.97595 15.7191 3.36926L16.465 4.11572C16.6627 4.31341 16.7713 4.57802 16.7713 4.86116C16.7713 5.1443 16.6627 5.40891 16.465 5.60659L14.9453 7.12629L12.708 4.88896L14.2277 3.36926ZM4.08864 13.5088L11.2171 6.37983L13.4545 8.61717L6.32495 15.7462L3.41734 16.4175L4.08864 13.5088ZM22.0435 20.9869C22.0435 21.5696 21.5714 22.0412 20.9891 22.0412H2.01141C1.42916 22.0412 0.957089 21.5696 0.957089 20.9869C0.957089 20.4041 1.42916 19.9326 2.01141 19.9326H20.9891C21.5714 19.9326 22.0435 20.4041 22.0435 20.9869Z" fill="#424A5A"/>
</g>
<defs>
<clipPath id="clip0_3419_83170">
<rect width="22" height="22" fill="white" transform="translate(0.5 0.5)"/>
</clipPath>
</defs>
</svg>
