<svg width="16" height="16" viewBox="0 0 16 16" fill="none" xmlns="http://www.w3.org/2000/svg">
<g clip-path="url(#clip0_3005_2390)">
<path d="M1.09883 13.366C1.15611 13.366 1.21415 13.3592 1.27106 13.3465L4.79531 12.5333C4.93534 12.5011 5.06376 12.43 5.16522 12.3281L11.0396 6.45377C11.0426 6.45077 11.0467 6.45002 11.0497 6.44703C11.0527 6.44403 11.0535 6.44029 11.0564 6.43729L12.6952 4.79816C13.1284 4.36535 13.3673 3.78727 13.3673 3.17175C13.3673 2.55623 13.1284 1.97816 12.6956 1.54535L12.1531 1.00246C11.2856 0.134596 9.76625 0.134596 8.89951 1.00246L7.25663 2.64534C7.25514 2.64684 7.25289 2.64759 7.25102 2.64908C7.24915 2.65058 7.24877 2.65283 7.24727 2.65508L1.3699 8.53245C1.26806 8.63429 1.1973 8.76233 1.16473 8.90236L0.351523 12.427C0.292367 12.6846 0.369869 12.9541 0.556696 13.1413C0.701964 13.2866 0.897777 13.366 1.09883 13.366ZM9.98378 2.08673C10.2706 1.80069 10.7824 1.80069 11.0684 2.08673L11.6109 2.62962C11.7547 2.77339 11.8337 2.96583 11.8337 3.17175C11.8337 3.37767 11.7547 3.57012 11.6109 3.71389L10.5057 4.81912L8.87855 3.19197L9.98378 2.08673ZM2.60992 9.46097L7.79428 4.27624L9.42143 5.90339L4.23633 11.0881L2.1217 11.5763L2.60992 9.46097ZM15.668 14.8995C15.668 15.3234 15.3246 15.6663 14.9012 15.6663H1.09921C0.675756 15.6663 0.332429 15.3234 0.332429 14.8995C0.332429 14.4757 0.675756 14.1328 1.09921 14.1328H14.9012C15.3246 14.1328 15.668 14.4757 15.668 14.8995Z" fill="white"/>
</g>
<defs>
<clipPath id="clip0_3005_2390">
<rect width="16" height="16" fill="white"/>
</clipPath>
</defs>
</svg>
