<svg width="22" height="23" viewBox="0 0 22 23" fill="none" xmlns="http://www.w3.org/2000/svg">
<g clip-path="url(#clip0_3622_1085)">
<path d="M21.6562 11.5C21.6562 5.61328 16.8867 0.84375 11 0.84375C5.11328 0.84375 0.34375 5.61328 0.34375 11.5C0.34375 17.3867 5.11328 22.1562 11 22.1562C16.8867 22.1562 21.6562 17.3867 21.6562 11.5ZM2.40625 11.5C2.40625 6.75195 6.25195 2.90625 11 2.90625C15.748 2.90625 19.5938 6.75195 19.5938 11.5C19.5938 16.248 15.748 20.0938 11 20.0938C6.25195 20.0938 2.40625 16.248 2.40625 11.5ZM10.5316 17.0816L5.31523 11.8652C5.11328 11.6633 5.11328 11.3367 5.31523 11.1348L10.5316 5.91836C10.7336 5.71641 11.0602 5.71641 11.2621 5.91836L12.1043 6.76055C12.3105 6.9668 12.3062 7.29766 12.0957 7.49961L9.075 10.3828H15.9844C16.268 10.3828 16.5 10.6148 16.5 10.8984V12.1016C16.5 12.3852 16.268 12.6172 15.9844 12.6172H9.075L12.0957 15.5004C12.3062 15.7023 12.3105 16.0332 12.1043 16.2395L11.2621 17.0816C11.0602 17.2836 10.7336 17.2836 10.5316 17.0816Z" fill="#424A5A"/>
</g>
<defs>
<clipPath id="clip0_3622_1085">
<rect width="22" height="22" fill="white" transform="translate(0 0.5)"/>
</clipPath>
</defs>
</svg>
