<svg width="16" height="16" viewBox="0 0 16 16" fill="none" xmlns="http://www.w3.org/2000/svg">
<g clip-path="url(#clip0_3005_2401)">
<path d="M0.25 8C0.25 12.2812 3.71875 15.75 8 15.75C12.2812 15.75 15.75 12.2812 15.75 8C15.75 3.71875 12.2812 0.25 8 0.25C3.71875 0.25 0.25 3.71875 0.25 8ZM14.25 8C14.25 11.4531 11.4531 14.25 8 14.25C4.54688 14.25 1.75 11.4531 1.75 8C1.75 4.54688 4.54688 1.75 8 1.75C11.4531 1.75 14.25 4.54688 14.25 8ZM12 7.375V8.625C12 8.83125 11.8313 9 11.625 9H8V11.0938C8 11.4281 7.59688 11.5938 7.35938 11.3594L4.26562 8.26562C4.11875 8.11875 4.11875 7.88125 4.26562 7.73438L7.35938 4.64062C7.59688 4.40312 8 4.57188 8 4.90625V7H11.625C11.8313 7 12 7.16875 12 7.375Z" fill="white"/>
</g>
<defs>
<clipPath id="clip0_3005_2401">
<rect width="16" height="16" fill="white"/>
</clipPath>
</defs>
</svg>
