<svg width="16" height="16" viewBox="0 0 16 16" fill="none" xmlns="http://www.w3.org/2000/svg">
<g clip-path="url(#clip0_3005_2369)">
<path d="M0.890156 0.890156L2.52031 2.52031C3.92266 1.11772 5.85984 0.25 7.99997 0.25C12.2706 0.25 15.7531 3.73516 15.75 8.00578C15.7469 12.2833 12.2783 15.75 8 15.75C6.00231 15.75 4.18119 14.9942 2.80694 13.7529C2.64716 13.6086 2.63966 13.3603 2.79187 13.2081L3.40869 12.5913C3.54925 12.4507 3.77597 12.4417 3.92434 12.574C5.00666 13.5389 6.43422 14.125 8 14.125C11.385 14.125 14.125 11.3856 14.125 8C14.125 4.61497 11.3856 1.875 8 1.875C6.30741 1.875 4.77634 2.56009 3.66831 3.66831L5.35981 5.35984C5.59606 5.59609 5.42875 6 5.09466 6H0.625C0.417906 6 0.25 5.83209 0.25 5.625V1.15534C0.25 0.82125 0.653937 0.653938 0.890156 0.890156Z" fill="white"/>
</g>
<defs>
<clipPath id="clip0_3005_2369">
<rect width="16" height="16" fill="white" transform="matrix(-1 0 0 1 16 0)"/>
</clipPath>
</defs>
</svg>
