<svg width="24" height="24" viewBox="0 0 24 24" fill="none" xmlns="http://www.w3.org/2000/svg">
<g clip-path="url(#clip0_3632_5677)">
<path d="M21.3935 19.9208L16.8771 15.4044C16.7916 15.3188 16.6799 15.2742 16.5609 15.2742H16.0698C17.2417 13.9163 17.9523 12.1492 17.9523 10.2147C17.9523 5.9401 14.4887 2.47656 10.2142 2.47656C5.93962 2.47656 2.47607 5.9401 2.47607 10.2147C2.47607 14.4892 5.93962 17.9528 10.2142 17.9528C12.1487 17.9528 13.9158 17.2422 15.2737 16.0703V16.5614C15.2737 16.6804 15.3221 16.792 15.4039 16.8776L19.9203 21.394C20.0951 21.5688 20.3779 21.5688 20.5527 21.394L21.3935 20.5532C21.5683 20.3783 21.5683 20.0956 21.3935 19.9208ZM10.2142 16.167C6.92548 16.167 4.26179 13.5033 4.26179 10.2147C4.26179 6.92597 6.92548 4.26228 10.2142 4.26228C13.5029 4.26228 16.1666 6.92597 16.1666 10.2147C16.1666 13.5033 13.5029 16.167 10.2142 16.167Z" fill="#7A8395" stroke="#7A8395" stroke-width="0.5"/>
</g>
<defs>
<clipPath id="clip0_3632_5677">
<rect width="20" height="20" fill="white" transform="translate(2 2)"/>
</clipPath>
</defs>
</svg>
