<svg width="21" height="20" viewBox="0 0 21 20" fill="none" xmlns="http://www.w3.org/2000/svg">
<path d="M3.5 6.34784V3.375C3.5 3.16791 3.73507 3 4.025 3H16.975C17.2649 3 17.5 3.16791 17.5 3.375V6.34784C17.5 6.55494 17.2649 6.72284 16.975 6.72284H15.8048C15.5149 6.72284 15.2798 6.55494 15.2798 6.34784V4.5H11.6917V15.5H13.825C14.1149 15.5 14.35 15.6679 14.35 15.875V16.625C14.35 16.8321 14.1149 17 13.825 17H7.175C6.88507 17 6.65 16.8321 6.65 16.625V15.875C6.65 15.6679 6.88507 15.5 7.175 15.5H9.30834V4.5H5.69297V6.34784C5.69297 6.55494 5.4579 6.72284 5.16797 6.72284H4.025C3.73507 6.72284 3.5 6.55497 3.5 6.34784Z" fill="#424A5A"/>
</svg>
