<svg width="20" height="21" viewBox="0 0 20 21" fill="none" xmlns="http://www.w3.org/2000/svg">
<path d="M3 6.84784V3.875C3 3.66791 3.23507 3.5 3.525 3.5H16.475C16.7649 3.5 17 3.66791 17 3.875V6.84784C17 7.05494 16.7649 7.22284 16.475 7.22284H15.3048C15.0149 7.22284 14.7798 7.05494 14.7798 6.84784V5H11.1917V16H13.325C13.6149 16 13.85 16.1679 13.85 16.375V17.125C13.85 17.3321 13.6149 17.5 13.325 17.5H6.675C6.38507 17.5 6.15 17.3321 6.15 17.125V16.375C6.15 16.1679 6.38507 16 6.675 16H8.80834V5H5.19297V6.84784C5.19297 7.05494 4.9579 7.22284 4.66797 7.22284H3.525C3.23507 7.22284 3 7.05497 3 6.84784Z" fill="#21232A"/>
</svg>
