<svg width="20" height="20" viewBox="0 0 20 20" fill="none" xmlns="http://www.w3.org/2000/svg">
<path d="M10 1C5.02823 1 1 5.02823 1 10C1 14.9718 5.02823 19 10 19C14.9718 19 19 14.9718 19 10C19 5.02823 14.9718 1 10 1ZM10 17.2581C5.98992 17.2581 2.74194 14.0101 2.74194 10C2.74194 5.98992 5.98992 2.74194 10 2.74194C14.0101 2.74194 17.2581 5.98992 17.2581 10C17.2581 14.0101 14.0101 17.2581 10 17.2581ZM12.2427 13.4694L9.16169 11.2302C9.04919 11.1468 8.98387 11.0161 8.98387 10.8782V4.91935C8.98387 4.67984 9.17984 4.48387 9.41935 4.48387H10.5806C10.8202 4.48387 11.0161 4.67984 11.0161 4.91935V10.0617L13.4403 11.8254C13.6363 11.9669 13.6762 12.2391 13.5347 12.4351L12.8524 13.375C12.7109 13.5673 12.4387 13.6109 12.2427 13.4694Z" fill="#424A5A"/>
</svg>
