<svg width="20" height="21" viewBox="0 0 20 21" fill="none" xmlns="http://www.w3.org/2000/svg">
<path d="M10 1.5C5.02823 1.5 1 5.52823 1 10.5C1 15.4718 5.02823 19.5 10 19.5C14.9718 19.5 19 15.4718 19 10.5C19 5.52823 14.9718 1.5 10 1.5ZM10 17.7581C5.98992 17.7581 2.74194 14.5101 2.74194 10.5C2.74194 6.48992 5.98992 3.24194 10 3.24194C14.0101 3.24194 17.2581 6.48992 17.2581 10.5C17.2581 14.5101 14.0101 17.7581 10 17.7581ZM12.2427 13.9694L9.16169 11.7302C9.04919 11.6468 8.98387 11.5161 8.98387 11.3782V5.41935C8.98387 5.17984 9.17984 4.98387 9.41935 4.98387H10.5806C10.8202 4.98387 11.0161 5.17984 11.0161 5.41935V10.5617L13.4403 12.3254C13.6363 12.4669 13.6762 12.7391 13.5347 12.9351L12.8524 13.875C12.7109 14.0673 12.4387 14.1109 12.2427 13.9694Z" fill="#21232A"/>
</svg>
