<svg width="150" height="18" viewBox="0 0 150 18" fill="none" xmlns="http://www.w3.org/2000/svg">
<g clip-path="url(#clip0_3415_61360)">
<g clip-path="url(#clip1_3415_61360)">
<path d="M40.9291 5.70356C40.8758 5.12014 40.644 4.66827 40.239 4.34511C39.8314 4.02194 39.2799 3.86178 38.5845 3.86178C38.1103 3.86178 37.7106 3.93328 37.3856 4.07627C37.0605 4.21927 36.8101 4.41374 36.6396 4.66541C36.4664 4.91708 36.3811 5.20021 36.3811 5.51766C36.3732 5.78363 36.4238 6.01528 36.5383 6.21262C36.6529 6.40995 36.8101 6.58154 37.0099 6.72168C37.2097 6.86467 37.4442 6.98765 37.708 7.0906C37.9717 7.19356 38.2541 7.28222 38.5525 7.35372L39.7861 7.67116C40.3856 7.81702 40.9344 8.00863 41.4353 8.24886C41.9362 8.48909 42.3678 8.78652 42.7355 9.13829C43.1005 9.49006 43.3856 9.90474 43.5907 10.3823C43.7932 10.8599 43.8971 11.4062 43.9024 12.0239C43.8971 12.9305 43.684 13.7141 43.263 14.3776C42.8421 15.0411 42.2319 15.553 41.4406 15.9191C40.6467 16.2823 39.6929 16.4653 38.5765 16.4653C37.4602 16.4653 36.5037 16.2823 35.6858 15.9162C34.8652 15.5502 34.2257 15.0068 33.7701 14.2861C33.3119 13.5654 33.0721 12.6731 33.0508 11.6064H35.8589C35.8909 12.104 36.0241 12.5158 36.2586 12.8476C36.493 13.1793 36.8074 13.4253 37.2044 13.594C37.5987 13.7599 38.049 13.8428 38.5472 13.8428C39.0454 13.8428 39.4664 13.7656 39.8314 13.6112C40.1964 13.4567 40.4788 13.2422 40.6787 12.9677C40.8785 12.6931 40.9797 12.3757 40.9797 12.0211C40.9797 11.6893 40.8891 11.409 40.708 11.1831C40.5268 10.9572 40.263 10.7627 39.9167 10.6054C39.5703 10.4453 39.1467 10.3023 38.6458 10.1707L37.1511 9.76461C35.9948 9.46146 35.081 8.98672 34.4096 8.34038C33.7382 7.69404 33.4051 6.82463 33.4105 5.72929C33.4051 4.83129 33.6289 4.04768 34.0765 3.37846C34.5268 2.70924 35.1423 2.18588 35.9309 1.80838C36.7168 1.43087 37.6121 1.24498 38.6112 1.24498C39.6103 1.24498 40.5215 1.43373 41.2808 1.80838C42.0428 2.18588 42.6369 2.70638 43.0605 3.37846C43.4842 4.04768 43.7026 4.82557 43.7186 5.70642H40.9371L40.9291 5.70356ZM54.6475 1.44231H57.549V11.063C57.549 12.144 57.3118 13.0878 56.8349 13.8972C56.358 14.7065 55.6946 15.3385 54.842 15.7875C53.9895 16.2394 52.9957 16.4625 51.8607 16.4625C50.7257 16.4625 49.7239 16.2366 48.8714 15.7875C48.0188 15.3357 47.3554 14.7065 46.8811 13.8972C46.4069 13.0878 46.1698 12.1412 46.1698 11.063V1.44231H49.0712V10.7942C49.0712 11.3576 49.1857 11.8609 49.4175 12.2985C49.6467 12.736 49.9717 13.0821 50.3927 13.3338C50.8136 13.5854 51.3012 13.7113 51.8607 13.7113C52.4202 13.7113 52.9131 13.5854 53.3314 13.3338C53.7497 13.0821 54.0721 12.7389 54.3038 12.2985C54.533 11.8609 54.6502 11.3576 54.6502 10.7942V1.44231H54.6475ZM60.2692 16.2566V1.44231H65.6857C66.7221 1.44231 67.6093 1.6425 68.342 2.04003C69.0774 2.43755 69.6369 3.00095 70.0232 3.72451C70.4095 4.45092 70.604 5.30317 70.604 6.28125C70.604 7.25934 70.4068 8.10873 70.0152 8.81512C69.6209 9.52152 69.0534 10.062 68.31 10.4395C67.5667 10.8171 66.6662 11.0029 65.6111 11.0029H61.985V8.48623H65.1422C65.6964 8.48623 66.1573 8.4033 66.5223 8.24028C66.8873 8.07727 67.1617 7.83132 67.3429 7.50243C67.5241 7.17354 67.6147 6.76744 67.6147 6.28125C67.6147 5.79507 67.5241 5.37467 67.3429 5.0372C67.1617 4.69973 66.8873 4.44234 66.5196 4.26789C66.152 4.09057 65.6884 4.00478 65.1289 4.00478H63.1706V16.2566H60.2692ZM67.6813 9.5158L71.0916 16.2566H67.8891L64.5507 9.5158H67.6813ZM72.9726 16.2566V1.44231H78.3891C79.4255 1.44231 80.3127 1.6425 81.0454 2.04003C81.7807 2.43755 82.3402 3.00095 82.7265 3.72451C83.1129 4.45092 83.3073 5.30317 83.3073 6.28125C83.3073 7.25934 83.1102 8.10873 82.7185 8.81512C82.3242 9.52152 81.7567 10.062 81.0134 10.4395C80.2701 10.8171 79.3695 11.0029 78.3145 11.0029H74.6884V8.48623H77.8455C78.3997 8.48623 78.8606 8.4033 79.2256 8.24028C79.5907 8.07727 79.8651 7.83132 80.0462 7.50243C80.2274 7.17354 80.318 6.76744 80.318 6.28125C80.318 5.79507 80.2274 5.37467 80.0462 5.0372C79.8651 4.69973 79.5907 4.44234 79.223 4.26789C78.8553 4.09057 78.3917 4.00478 77.8322 4.00478H75.874V16.2566H72.9726ZM80.3846 9.5158L83.7949 16.2566H80.5924L77.2541 9.5158H80.3846ZM98.2887 8.84944C98.2887 10.4653 98.0062 11.838 97.4414 12.9734C96.8766 14.1059 96.1066 14.9696 95.1368 15.5673C94.1643 16.1622 93.0746 16.4596 91.8624 16.4596C90.6501 16.4596 89.5471 16.1593 88.5773 15.5616C87.6075 14.9639 86.8402 14.0974 86.278 12.9648C85.7159 11.8323 85.4334 10.4596 85.4334 8.84944C85.4334 7.23932 85.7159 5.86085 86.278 4.72547C86.8402 3.59295 87.6075 2.72926 88.5773 2.13155C89.5471 1.53669 90.6421 1.23926 91.8624 1.23926C93.0826 1.23926 94.1643 1.53669 95.1368 2.13155C96.1093 2.7264 96.8766 3.59009 97.4414 4.72547C98.0062 5.85799 98.2887 7.2336 98.2887 8.84944ZM95.3473 8.84944C95.3473 7.80272 95.2034 6.92187 94.9157 6.20118C94.6279 5.48334 94.223 4.9371 93.6981 4.56532C93.1759 4.19353 92.5631 4.00764 91.8624 4.00764C91.1617 4.00764 90.5489 4.19353 90.0267 4.56532C89.5045 4.9371 89.0995 5.48048 88.8091 6.20118C88.5214 6.91901 88.3775 7.80272 88.3775 8.84944C88.3775 9.89616 88.5214 10.777 88.8091 11.4977C89.0969 12.2155 89.5018 12.7618 90.0267 13.1336C90.5489 13.5054 91.1617 13.6912 91.8624 13.6912C92.5631 13.6912 93.1759 13.5054 93.6981 13.1336C94.2203 12.7618 94.6253 12.2184 94.9157 11.4977C95.2034 10.7799 95.3473 9.89616 95.3473 8.84944ZM100.758 1.44231H104.337L108.117 11.3947H108.277L112.058 1.44231H115.636V16.2566H112.82V6.613H112.705L109.154 16.1822H107.238L103.687 6.57582H103.572V16.2537H100.756V1.44231H100.758ZM121.252 1.44231V16.2566H118.351V1.44231H121.252ZM135.44 1.44231V16.2566H132.932L126.962 6.93331H126.861V16.2566H123.959V1.44231H126.506L132.432 10.7599H132.551V1.44231H135.44ZM143.019 16.2566H138.154V1.44231H143.059C144.44 1.44231 145.628 1.73688 146.624 2.32888C147.621 2.92088 148.388 3.76741 148.926 4.87133C149.464 5.97525 149.734 7.29652 149.734 8.83514C149.734 10.3738 149.464 11.7036 148.926 12.8133C148.388 13.9229 147.618 14.7723 146.614 15.3671C145.609 15.9591 144.413 16.2566 143.017 16.2566H143.019ZM141.056 13.574H142.9C143.757 13.574 144.48 13.4081 145.068 13.0792C145.657 12.7503 146.099 12.2356 146.395 11.5377C146.694 10.8399 146.84 9.93906 146.84 8.83514C146.84 7.73122 146.691 6.84465 146.395 6.15256C146.097 5.4576 145.657 4.94854 145.071 4.61965C144.485 4.29077 143.763 4.12775 142.905 4.12775H141.056V13.574ZM54.914 1.44231H57.8154V11.063C57.8154 12.144 57.5783 13.0878 57.1014 13.8972C56.6244 14.7065 55.961 15.3385 55.1085 15.7875C54.2559 16.2394 53.2621 16.4625 52.1271 16.4625C50.9921 16.4625 49.9904 16.2366 49.1378 15.7875C48.2852 15.3357 47.6218 14.7065 47.1476 13.8972C46.6733 13.0878 46.4362 12.1412 46.4362 11.063V1.44231H49.3376V10.7942C49.3376 11.3576 49.4522 11.8609 49.684 12.2985C49.9131 12.736 50.2381 13.0821 50.6591 13.3338C51.0801 13.5854 51.5676 13.7113 52.1271 13.7113C52.6866 13.7113 53.1795 13.5854 53.5978 13.3338C54.0161 13.0821 54.3385 12.7389 54.5703 12.2985C54.7994 11.8609 54.9166 11.3576 54.9166 10.7942V1.44231H54.914ZM60.5356 16.2566V1.44231H65.9521C66.9885 1.44231 67.8758 1.6425 68.6084 2.04003C69.3438 2.43755 69.9033 3.00095 70.2896 3.72451C70.6759 4.45092 70.8704 5.30317 70.8704 6.28125C70.8704 7.25934 70.6733 8.10873 70.2816 8.81512C69.8873 9.52152 69.3198 10.062 68.5765 10.4395C67.8331 10.8171 66.9326 11.0029 65.8775 11.0029H62.2514V8.48623H65.4086C65.9628 8.48623 66.4237 8.4033 66.7887 8.24028C67.1537 8.07727 67.4282 7.83132 67.6093 7.50243C67.7905 7.17354 67.8811 6.76744 67.8811 6.28125C67.8811 5.79507 67.7905 5.37467 67.6093 5.0372C67.4282 4.69973 67.1537 4.44234 66.7861 4.26789C66.4184 4.09057 65.9548 4.00478 65.3953 4.00478H63.437V16.2566H60.5356ZM67.9477 9.5158L71.358 16.2566H68.1555L64.8172 9.5158H67.9477ZM73.239 16.2566V1.44231H78.6555C79.6919 1.44231 80.5791 1.6425 81.3118 2.04003C82.0471 2.43755 82.6066 3.00095 82.993 3.72451C83.3793 4.45092 83.5738 5.30317 83.5738 6.28125C83.5738 7.25934 83.3766 8.10873 82.985 8.81512C82.5906 9.52152 82.0232 10.062 81.2798 10.4395C80.5365 10.8171 79.6359 11.0029 78.5809 11.0029H74.9548V8.48623H78.112C78.6661 8.48623 79.1271 8.4033 79.4921 8.24028C79.8571 8.07727 80.1315 7.83132 80.3127 7.50243C80.4938 7.17354 80.5844 6.76744 80.5844 6.28125C80.5844 5.79507 80.4938 5.37467 80.3127 5.0372C80.1315 4.69973 79.8571 4.44234 79.4894 4.26789C79.1217 4.09057 78.6581 4.00478 78.0986 4.00478H76.1404V16.2566H73.239ZM80.651 9.5158L84.0613 16.2566H80.8589L77.5205 9.5158H80.651ZM98.5551 8.84944C98.5551 10.4653 98.2727 11.838 97.7078 12.9734C97.143 14.1059 96.373 14.9696 95.4032 15.5673C94.4308 16.1622 93.3411 16.4596 92.1288 16.4596C90.9166 16.4596 89.8136 16.1593 88.8438 15.5616C87.8739 14.9639 87.1066 14.0974 86.5445 12.9648C85.9823 11.8323 85.6999 10.4596 85.6999 8.84944C85.6999 7.23932 85.9823 5.86085 86.5445 4.72547C87.1066 3.59295 87.8739 2.72926 88.8438 2.13155C89.8136 1.53669 90.9086 1.23926 92.1288 1.23926C93.3491 1.23926 94.4308 1.53669 95.4032 2.13155C96.3757 2.7264 97.143 3.59009 97.7078 4.72547C98.2727 5.85799 98.5551 7.2336 98.5551 8.84944ZM95.6137 8.84944C95.6137 7.80272 95.4698 6.92187 95.1821 6.20118C94.8944 5.48334 94.4894 4.9371 93.9645 4.56532C93.4423 4.19353 92.8295 4.00764 92.1288 4.00764C91.4281 4.00764 90.8153 4.19353 90.2931 4.56532C89.7709 4.9371 89.3659 5.48048 89.0755 6.20118C88.7878 6.91901 88.6439 7.80272 88.6439 8.84944C88.6439 9.89616 88.7878 10.777 89.0755 11.4977C89.3633 12.2155 89.7683 12.7618 90.2931 13.1336C90.8153 13.5054 91.4281 13.6912 92.1288 13.6912C92.8295 13.6912 93.4423 13.5054 93.9645 13.1336C94.4867 12.7618 94.8917 12.2184 95.1821 11.4977C95.4698 10.7799 95.6137 9.89616 95.6137 8.84944ZM101.025 1.44231H104.603L108.384 11.3947H108.544L112.324 1.44231H115.902V16.2566H113.086V6.613H112.972L109.42 16.1822H107.504L103.953 6.57582H103.838V16.2537H101.022V1.44231H101.025ZM121.519 1.44231V16.2566H118.617V1.44231H121.519ZM135.706 1.44231V16.2566H133.199L127.228 6.93331H127.127V16.2566H124.226V1.44231H126.773L132.698 10.7599H132.818V1.44231H135.706ZM143.286 16.2566H138.421V1.44231H143.326C144.706 1.44231 145.894 1.73688 146.891 2.32888C147.887 2.92088 148.654 3.76741 149.193 4.87133C149.731 5.97525 150 7.29652 150 8.83514C150 10.3738 149.731 11.7036 149.193 12.8133C148.654 13.9229 147.884 14.7723 146.88 15.3671C145.876 15.9591 144.679 16.2566 143.283 16.2566H143.286ZM141.322 13.574H143.166C144.024 13.574 144.746 13.4081 145.335 13.0792C145.924 12.7503 146.366 12.2356 146.662 11.5377C146.96 10.8399 147.107 9.93906 147.107 8.83514C147.107 7.73122 146.957 6.84465 146.662 6.15256C146.363 5.4576 145.924 4.94854 145.337 4.61965C144.751 4.29077 144.029 4.12775 143.171 4.12775H141.322V13.574Z" fill="#FE5000"/>
</g>
<g clip-path="url(#clip2_3415_61360)">
<path fill-rule="evenodd" clip-rule="evenodd" d="M25.4258 17.5H29.096L25.9495 12.9457C27.7364 11.8072 29.0572 10.0993 29.0572 7.19181C29.0572 3.18656 26.2141 0.5 22.923 0.5H0V3.59319H22.923C24.5978 3.59319 26.1049 4.97574 26.1049 7.19181C26.1049 9.61134 24.5978 10.8312 22.923 10.8312H0V13.8836V17.5H3.18542V13.9216H22.9414L25.4258 17.5Z" fill="#FE5000"/>
<path d="M11.8645 8.77854C12.7225 8.77854 13.4181 8.05052 13.4181 7.15245C13.4181 6.25439 12.7225 5.52637 11.8645 5.52637C11.0064 5.52637 10.3108 6.25439 10.3108 7.15245C10.3108 8.05052 11.0064 8.77854 11.8645 8.77854Z" fill="#FE5000"/>
<path d="M22.4577 8.77854C23.3158 8.77854 24.0114 8.05052 24.0114 7.15245C24.0114 6.25439 23.3158 5.52637 22.4577 5.52637C21.5997 5.52637 20.9041 6.25439 20.9041 7.15245C20.9041 8.05052 21.5997 8.77854 22.4577 8.77854Z" fill="#FE5000"/>
</g>
</g>
<defs>
<clipPath id="clip0_3415_61360">
<rect width="150" height="17" fill="white" transform="translate(0 0.5)"/>
</clipPath>
<clipPath id="clip1_3415_61360">
<rect width="116.949" height="15.2261" fill="white" transform="translate(33.0508 1.23926)"/>
</clipPath>
<clipPath id="clip2_3415_61360">
<rect width="29.096" height="17" fill="white" transform="translate(0 0.5)"/>
</clipPath>
</defs>
</svg>
